<?xml version="1.0" standalone="no"?>
<!DOCTYPE svg PUBLIC "-//W3C//DTD SVG 20010904//EN"
 "http://www.w3.org/TR/2001/REC-SVG-20010904/DTD/svg10.dtd">
<svg version="1.0" xmlns="http://www.w3.org/2000/svg"
 width="64.000000pt" height="64.000000pt" viewBox="0 0 64.000000 64.000000"
 preserveAspectRatio="xMidYMid meet">

<g transform="translate(0.000000,64.000000) scale(0.100000,-0.100000)"
fill="#000000" stroke="none">
<path d="M475 581 c-49 -21 -47 -34 15 -96 l59 -58 20 34 c24 37 21 73 -7 101
-21 21 -61 30 -87 19z"/>
<path d="M60 511 c-6 -12 -10 -102 -10 -224 0 -185 2 -205 18 -220 16 -15 47
-17 221 -17 120 0 210 4 222 10 17 10 19 22 19 123 0 112 -7 137 -36 137 -32
0 -44 -31 -44 -111 l0 -80 -158 3 -157 3 -3 158 -3 157 76 0 c83 0 115 11 115
38 0 36 -21 42 -137 42 -101 0 -113 -2 -123 -19z"/>
<path d="M298 413 c-69 -71 -92 -101 -112 -152 -43 -106 -34 -116 70 -75 57
22 84 41 157 113 48 47 87 90 87 96 0 13 -92 105 -106 105 -5 0 -48 -39 -96
-87z"/>
</g>
</svg>
